<svg xmlns="http://www.w3.org/2000/svg" width="24" height="24" viewBox="0 0 24 24" fill="none" stroke="#1E88E5" stroke-width="2" stroke-linecap="round" stroke-linejoin="round">
  <path d="M8.56 3.69a9 9 0 0 0-2.92 1.95"></path>
  <path d="M3.69 8.56A9 9 0 0 0 3 12"></path>
  <path d="M3.69 15.44a9 9 0 0 0 1.95 2.92"></path>
  <path d="M8.56 20.31A9 9 0 0 0 12 21"></path>
  <path d="M15.44 20.31a9 9 0 0 0 2.92-1.95"></path>
  <path d="M20.31 15.44A9 9 0 0 0 21 12"></path>
  <path d="M20.31 8.56a9 9 0 0 0-1.95-2.92"></path>
  <path d="M15.44 3.69A9 9 0 0 0 12 3"></path>
  <circle cx="12" cy="12" r="2"></circle>
  <path d="m13.41 10.59 7.66-7.66"></path>
</svg>